<svg viewBox="-14 0 512 512" xmlns="http://www.w3.org/2000/svg"><path d="m295.570312 497h-220.253906c-33.257812 0-60.316406-27.015625-60.316406-60.21875v-220.199219c0-4.140625-3.355469-7.5-7.5-7.5s-7.5 3.359375-7.5 7.5v220.199219c0 41.476562 33.789062 75.21875 75.316406 75.21875h220.253906c4.140626 0 7.5-3.355469 7.5-7.5s-3.359374-7.5-7.5-7.5zm0 0"/><path d="m483.121094 119.832031c0-22.480469-6.269532-44.398437-18.136719-63.378906-2.195313-3.511719-6.824219-4.582031-10.335937-2.382813-3.511719 2.195313-4.578126 6.820313-2.382813 10.335938 10.371094 16.59375 15.855469 35.757812 15.855469 55.425781 0 57.804688-47.101563 104.828125-104.992188 104.828125-57.894531 0-104.996094-47.023437-104.996094-104.828125 0-57.804687 47.101563-104.832031 104.996094-104.832031 24.335938 0 48.054688 8.503906 66.785156 23.9375 3.195313 2.632812 7.921876 2.179688 10.558594-1.015625 2.632813-3.199219 2.179688-7.925781-1.019531-10.558594-21.410156-17.644531-48.515625-27.363281-76.324219-27.363281-44.53125 0-83.472656 24.351562-104.179687 60.414062h-183.632813c-41.527344 0-75.316406 33.746094-75.316406 75.222657v45.53125c0 4.144531 3.355469 7.5 7.5 7.5s7.5-3.355469 7.5-7.5v-45.53125c0-33.207031 27.058594-60.222657 60.316406-60.222657h176.367188c-5.511719 13.742188-8.550782 28.730469-8.550782 44.417969 0 66.074219 53.828126 119.828125 119.996094 119.828125 22.351563 0 43.296875-6.144531 61.234375-16.816406v213.9375c0 33.203125-27.058593 60.21875-60.316406 60.21875h-33.273437c-4.140626 0-7.5 3.355469-7.5 7.5s3.359374 7.5 7.5 7.5h33.273437c41.527344 0 75.316406-33.742188 75.316406-75.21875v-224.480469c26.707031-21.996093 43.757813-55.28125 43.757813-92.46875zm0 0"/><path d="m363.128906 174.046875c4.140625 0 7.5-3.359375 7.5-7.5v-93.402344c0-2.96875-1.753906-5.660156-4.46875-6.859375-2.714844-1.199218-5.886718-.683594-8.082031 1.3125l-16.074219 14.636719c-3.066406 2.789063-3.285156 7.535156-.496094 10.597656 2.789063 3.0625 7.53125 3.285157 10.59375.496094l3.527344-3.210937v76.429687c0 4.140625 3.355469 7.5 7.5 7.5zm0 0"/><path d="m87.066406 428.183594c3.089844 0 4.996094-1.140625 5.71875-3.425782l6.335938-22.097656h38.078125l6.414062 22.15625c.785157 2.246094 2.8125 3.367188 6.070313 3.367188 2.695312 0 5.246094-.703125 7.65625-2.105469 2.40625-1.402344 3.609375-3.074219 3.609375-5.019531 0-.324219-.101563-.8125-.308594-1.457032l-30.671875-100.234374c-1.316406-3.457032-5.042969-5.183594-11.179688-5.183594-6.023437 0-9.695312 1.855468-11.011718 5.5625l-30.757813 100.253906c-.105469.308594-.15625.773438-.15625 1.390625 0 1.851563 1.082031 3.449219 3.246094 4.789063 2.164063 1.335937 4.484375 2.003906 6.957031 2.003906zm31-91.601563 15.53125 53.085938h-30.75zm0 0"/><path d="m180.136719 428.183594c2.269531 0 4.207031-.488282 5.808593-1.46875 1.601563-.980469 2.402344-2.292969 2.402344-3.945313v-38.207031h19.207032c10.535156 0 18.976562-2.757812 25.328124-8.273438 6.351563-5.515624 9.527344-14.152343 9.527344-25.910156v-1.234375c0-11.757812-3.074218-20.367187-9.21875-25.832031-6.144531-5.464844-14.382812-8.199219-24.707031-8.199219h-30.207031c-1.859375 0-3.382813.519531-4.570313 1.546875-1.1875 1.03125-1.78125 2.269532-1.78125 3.710938v102.398437c0 1.652344.828125 2.964844 2.480469 3.945313 1.652344.980468 3.5625 1.46875 5.730469 1.46875zm8.210937-98.53125h19.207032c5.886718 0 10.429687 1.648437 13.632812 4.949218 3.199219 3.300782 4.800781 8.300782 4.800781 15.003907v1.855469c0 6.703124-1.601562 11.730468-4.800781 15.082031-3.203125 3.351562-7.746094 5.027343-13.632812 5.027343h-19.207032zm0 0"/><path d="m326.832031 349.140625c0-11.753906-3.070312-20.363281-9.214843-25.828125-6.148438-5.464844-14.382813-8.199219-24.707032-8.199219h-30.207031c-1.859375 0-3.386719.515625-4.570313 1.546875-1.1875 1.03125-1.78125 2.269532-1.78125 3.710938v102.398437c0 1.652344.824219 2.964844 2.476563 3.945313 1.652344.980468 3.566406 1.46875 5.734375 1.46875 2.269531 0 4.207031-.488282 5.808594-1.46875 1.601562-.980469 2.398437-2.292969 2.398437-3.945313v-38.207031h19.210938c10.53125 0 18.976562-2.757812 25.328125-8.273438 6.347656-5.515624 9.523437-14.152343 9.523437-25.910156zm-16.417969 2.320313c0 6.703124-1.605468 11.730468-4.804687 15.082031-3.199219 3.351562-7.742187 5.027343-13.628906 5.027343h-19.210938v-41.917968h19.210938c5.886719 0 10.429687 1.648437 13.628906 4.949218 3.199219 3.300782 4.804687 8.300782 4.804687 15.003907zm0 0"/></svg>