<svg height="512" viewBox="0 0 64 64" width="512" xmlns="http://www.w3.org/2000/svg"><path d="m61.18 39.1a3.969 3.969 0 0 0 -2.18-2.29v-27.81a3.009 3.009 0 0 0 -3-3h-32a3.009 3.009 0 0 0 -3 3v28.03a20.264 20.264 0 0 0 -3.24 1.85l-3.14 2.2-1.15-1.64a1.007 1.007 0 0 0 -1.39-.25l-9.83 6.88a1.017 1.017 0 0 0 -.25 1.4l10.33 14.74a1 1 0 0 0 1.39.25l9.83-6.88a1.019 1.019 0 0 0 .25-1.4l-.57-.81a8.9 8.9 0 0 1 6.6-1.41l1.78.3a13 13 0 0 0 6.71-.58l20.47-7.45a4 4 0 0 0 2.39-5.13zm-16.18-31.1h11a1 1 0 0 1 1 1v3h-12zm-8 0h6v8.59l-2.29-2.3a1.008 1.008 0 0 0 -1.42 0l-2.29 2.3zm-14 1a1 1 0 0 1 1-1h11v4h-12zm0 5h12v5a.987.987 0 0 0 .62.92 1 1 0 0 0 1.09-.21l3.29-3.3 3.29 3.3a1.007 1.007 0 0 0 .71.29.838.838 0 0 0 .38-.08.987.987 0 0 0 .62-.92v-5h12v22.51a3.847 3.847 0 0 0 -.94.2l-3.54 1.29h-7.03a3.873 3.873 0 0 0 -1.85-.87l-10.05-1.77a20.993 20.993 0 0 0 -9.74.58l-.18.06c-.23.06-.45.15-.67.23zm-9.61 46.25-9.17-13.11 8.19-5.74 9.17 13.11zm46.01-19.43a2 2 0 0 1 -1.29 1.53l-20.47 7.45a10.988 10.988 0 0 1 -5.68.49l-1.79-.3a10.883 10.883 0 0 0 -8.09 1.74l-6.31-9.02 3.14-2.19a18.6 18.6 0 0 1 5.31-2.6l.18-.05a19.244 19.244 0 0 1 8.85-.55l10.04 1.77a2.048 2.048 0 0 1 1.3.83 2.012 2.012 0 0 1 .33.86 1.768 1.768 0 0 1 -.05.84 2.009 2.009 0 0 1 -2.29 1.42l-10.81-1.91-.34 1.96 10.8 1.91a3.419 3.419 0 0 0 .71.07 4.017 4.017 0 0 0 3.84-2.85l9.96-3.63a2 2 0 0 1 2.56 1.2 1.9 1.9 0 0 1 .1 1.03z"/></svg>