<?xml version="1.0" encoding="iso-8859-1"?>
<!-- Generator: Adobe Illustrator 19.0.0, SVG Export Plug-In . SVG Version: 6.00 Build 0)  -->
<svg version="1.1" id="Capa_1" xmlns="http://www.w3.org/2000/svg" xmlns:xlink="http://www.w3.org/1999/xlink" x="0px" y="0px"
	 viewBox="0 0 512 512" style="enable-background:new 0 0 512 512;" xml:space="preserve">
<g>
	<g>
		<path d="M282.208,19.67c-3.648-3.008-8.48-4.256-13.152-3.392l-256,48C5.472,65.686,0,72.278,0,79.99v352
			c0,7.68,5.472,14.304,13.056,15.712l256,48c0.96,0.192,1.984,0.288,2.944,0.288c3.68,0,7.328-1.28,10.208-3.68
			c3.68-3.04,5.792-7.584,5.792-12.32v-448C288,27.222,285.888,22.71,282.208,19.67z M256,460.694L32,418.71V93.27l224-41.984
			V460.694z"/>
	</g>
</g>
<g>
	<g>
		<path d="M496,79.99H272c-8.832,0-16,7.168-16,16c0,8.832,7.168,16,16,16h208v288H272c-8.832,0-16,7.168-16,16
			c0,8.832,7.168,16,16,16h224c8.832,0,16-7.168,16-16v-320C512,87.158,504.832,79.99,496,79.99z"/>
	</g>
</g>
<g>
	<g>
		<path d="M432,335.99H272c-8.832,0-16,7.168-16,16c0,8.832,7.168,16,16,16h160c8.832,0,16-7.168,16-16
			C448,343.158,440.832,335.99,432,335.99z"/>
	</g>
</g>
<g>
	<g>
		<path d="M112,175.99c-8.832,0-16,7.168-16,16v160c0,8.832,7.168,16,16,16c8.832,0,16-7.168,16-16v-160
			C128,183.158,120.832,175.99,112,175.99z"/>
	</g>
</g>
<g>
	<g>
		<path d="M160,175.99h-48c-8.832,0-16,7.168-16,16c0,8.832,7.168,16,16,16h48c17.632,0,32,14.368,32,32s-14.368,32-32,32h-48
			c-8.832,0-16,7.168-16,16c0,8.832,7.168,16,16,16h48c35.296,0,64-28.704,64-64C224,204.694,195.296,175.99,160,175.99z"/>
	</g>
</g>
<g>
	<g>
		<path d="M368,143.99c-44.128,0-80,35.904-80,80s35.872,80,80,80s80-35.904,80-80S412.128,143.99,368,143.99z M368,271.99
			c-26.464,0-48-21.536-48-48s21.536-48,48-48s48,21.536,48,48S394.464,271.99,368,271.99z"/>
	</g>
</g>
<g>
	<g>
		<path d="M432,207.99h-48v-48c0-8.832-7.168-16-16-16c-8.832,0-16,7.168-16,16v64c0,8.832,7.168,16,16,16h64
			c8.832,0,16-7.168,16-16C448,215.158,440.832,207.99,432,207.99z"/>
	</g>
</g>
<g>
</g>
<g>
</g>
<g>
</g>
<g>
</g>
<g>
</g>
<g>
</g>
<g>
</g>
<g>
</g>
<g>
</g>
<g>
</g>
<g>
</g>
<g>
</g>
<g>
</g>
<g>
</g>
<g>
</g>
</svg>
